<svg width="79" height="33" viewBox="0 0 79 33" fill="none" xmlns="http://www.w3.org/2000/svg">
<circle cx="14.9514" cy="14.9514" r="14.9514" fill="#3873D3"/>
<path d="M14.8804 15.1934H29.9029V29.9029H14.8804V15.1934Z" fill="#3873D3"/>
<path d="M25.3789 14.9512C25.3789 20.6788 20.7103 25.3219 14.9513 25.3219C9.19233 25.3219 4.52374 20.6788 4.52374 14.9512C4.52374 9.22368 9.19233 4.58057 14.9513 4.58057C20.7103 4.58057 25.3789 9.22368 25.3789 14.9512Z" fill="white"/>
<path d="M20.5834 13.2233C20.6392 13.2233 20.6844 13.2685 20.6844 13.3243V16.6063C20.6844 16.6621 20.6392 16.7074 20.5834 16.7074H16.7449V20.5549C16.7449 20.6107 16.6997 20.656 16.6439 20.656H13.3442C13.2884 20.656 13.2432 20.6107 13.2432 20.5549V16.7074H9.40473C9.34894 16.7074 9.30371 16.6621 9.30371 16.6063V13.3243C9.30371 13.2685 9.34894 13.2233 9.40473 13.2233H13.2432V9.40473C13.2432 9.34894 13.2884 9.30371 13.3442 9.30371H16.6439C16.6997 9.30371 16.7449 9.34894 16.7449 9.40473V13.2233H20.5834Z" fill="#EC3E34" stroke="#EC3E34" stroke-width="0.627716" stroke-linecap="square"/>
<path d="M40.5582 15.2057C39.8581 15.8967 39.0035 16.2422 37.9942 16.2422C36.985 16.2422 36.1304 15.8967 35.4303 15.2057C34.7393 14.5056 34.3938 13.651 34.3938 12.6417C34.3938 11.6325 34.7393 10.7824 35.4303 10.0914C36.1304 9.39132 36.985 9.04128 37.9942 9.04128C39.0035 9.04128 39.8581 9.39132 40.5582 10.0914C41.2583 10.7824 41.6083 11.6325 41.6083 12.6417C41.6083 13.651 41.2583 14.5056 40.5582 15.2057ZM36.6713 13.9919C37.0259 14.3465 37.4669 14.5238 37.9942 14.5238C38.5216 14.5238 38.9626 14.3465 39.3171 13.9919C39.6717 13.6373 39.849 13.1873 39.849 12.6417C39.849 12.0962 39.6717 11.6462 39.3171 11.2916C38.9626 10.937 38.5216 10.7597 37.9942 10.7597C37.4669 10.7597 37.0259 10.937 36.6713 11.2916C36.3258 11.6462 36.1531 12.0962 36.1531 12.6417C36.1531 13.1873 36.3258 13.6373 36.6713 13.9919ZM44.3224 11.1688C44.3224 11.3507 44.4406 11.5007 44.677 11.6189C44.9225 11.728 45.218 11.828 45.5635 11.9189C45.909 12.0007 46.2545 12.1099 46.6 12.2462C46.9455 12.3735 47.2364 12.5917 47.4728 12.9009C47.7183 13.21 47.8411 13.5964 47.8411 14.0601C47.8411 14.7602 47.5774 15.3012 47.0501 15.683C46.5318 16.0558 45.8817 16.2422 45.0998 16.2422C43.6996 16.2422 42.745 15.7012 42.2358 14.6193L43.7633 13.7601C43.9633 14.3511 44.4088 14.6465 45.0998 14.6465C45.7272 14.6465 46.0408 14.4511 46.0408 14.0601C46.0408 13.8783 45.9181 13.7328 45.6726 13.6237C45.4362 13.5055 45.1453 13.4009 44.7998 13.31C44.4543 13.2191 44.1088 13.1054 43.7633 12.9691C43.4178 12.8327 43.1223 12.619 42.8768 12.3281C42.6404 12.028 42.5222 11.6553 42.5222 11.2097C42.5222 10.5369 42.7677 10.0096 43.2587 9.62772C43.7587 9.23676 44.377 9.04128 45.1134 9.04128C45.6681 9.04128 46.1727 9.16857 46.6273 9.42315C47.0819 9.66863 47.441 10.0232 47.7047 10.4869L46.2045 11.3052C45.9863 10.8415 45.6226 10.6097 45.1134 10.6097C44.8861 10.6097 44.6952 10.6597 44.5406 10.7597C44.3952 10.8597 44.3224 10.9961 44.3224 11.1688ZM54.6891 15.2057C53.989 15.8967 53.1344 16.2422 52.1251 16.2422C51.1159 16.2422 50.2613 15.8967 49.5612 15.2057C48.8702 14.5056 48.5247 13.651 48.5247 12.6417C48.5247 11.6325 48.8702 10.7824 49.5612 10.0914C50.2613 9.39132 51.1159 9.04128 52.1251 9.04128C53.1344 9.04128 53.989 9.39132 54.6891 10.0914C55.3892 10.7824 55.7392 11.6325 55.7392 12.6417C55.7392 13.651 55.3892 14.5056 54.6891 15.2057ZM50.8022 13.9919C51.1568 14.3465 51.5978 14.5238 52.1251 14.5238C52.6525 14.5238 53.0934 14.3465 53.448 13.9919C53.8026 13.6373 53.9799 13.1873 53.9799 12.6417C53.9799 12.0962 53.8026 11.6462 53.448 11.2916C53.0934 10.937 52.6525 10.7597 52.1251 10.7597C51.5978 10.7597 51.1568 10.937 50.8022 11.2916C50.4567 11.6462 50.284 12.0962 50.284 12.6417C50.284 13.1873 50.4567 13.6373 50.8022 13.9919ZM60.7683 9.04128C61.5138 9.04128 62.1276 9.29131 62.6094 9.79137C63.1004 10.2914 63.3459 10.9824 63.3459 11.8644V16.0513H61.5866V12.0826C61.5866 11.628 61.4638 11.2825 61.2184 11.0461C60.9729 10.8006 60.6456 10.6779 60.2364 10.6779C59.7818 10.6779 59.4181 10.8188 59.1454 11.1006C58.8726 11.3825 58.7362 11.8053 58.7362 12.369V16.0513H56.9769V9.23221H58.7362V9.99595C59.1635 9.3595 59.8409 9.04128 60.7683 9.04128ZM39.9309 23.2322H41.6902V30.0513H39.9309V29.2466C39.4035 29.9103 38.6625 30.2422 37.7078 30.2422C36.7986 30.2422 36.0167 29.8967 35.3621 29.2057C34.7166 28.5056 34.3938 27.651 34.3938 26.6417C34.3938 25.6325 34.7166 24.7824 35.3621 24.0914C36.0167 23.3913 36.7986 23.0413 37.7078 23.0413C38.6625 23.0413 39.4035 23.3731 39.9309 24.0369V23.2322ZM36.685 28.0328C37.0396 28.3874 37.4896 28.5647 38.0352 28.5647C38.5807 28.5647 39.0307 28.3874 39.3853 28.0328C39.749 27.6691 39.9309 27.2054 39.9309 26.6417C39.9309 26.078 39.749 25.6189 39.3853 25.2643C39.0307 24.9006 38.5807 24.7188 38.0352 24.7188C37.4896 24.7188 37.0396 24.9006 36.685 25.2643C36.3304 25.6189 36.1531 26.078 36.1531 26.6417C36.1531 27.2054 36.3304 27.6691 36.685 28.0328ZM47.2542 23.0413C48.1725 23.0413 48.9544 23.3913 49.6 24.0914C50.2546 24.7824 50.5819 25.6325 50.5819 26.6417C50.5819 27.651 50.2546 28.5056 49.6 29.2057C48.9544 29.8967 48.1725 30.2422 47.2542 30.2422C46.2995 30.2422 45.5631 29.9103 45.0448 29.2466V32.7789H43.2855V23.2322H45.0448V24.0369C45.5631 23.3731 46.2995 23.0413 47.2542 23.0413ZM45.5767 28.0328C45.9313 28.3874 46.3814 28.5647 46.9269 28.5647C47.4724 28.5647 47.9225 28.3874 48.2771 28.0328C48.6407 27.6691 48.8226 27.2054 48.8226 26.6417C48.8226 26.078 48.6407 25.6189 48.2771 25.2643C47.9225 24.9006 47.4724 24.7188 46.9269 24.7188C46.3814 24.7188 45.9313 24.9006 45.5767 25.2643C45.2221 25.6189 45.0448 26.078 45.0448 26.6417C45.0448 27.2054 45.2221 27.6691 45.5767 28.0328ZM55.5767 24.9233H54.0355V27.7601C54.0355 27.9965 54.0946 28.1692 54.2128 28.2783C54.331 28.3874 54.5038 28.4511 54.7311 28.4692C54.9584 28.4783 55.2402 28.4738 55.5767 28.4556V30.0513C54.3674 30.1877 53.5128 30.074 53.0127 29.7103C52.5217 29.3466 52.2762 28.6966 52.2762 27.7601V24.9233H51.0897V23.2322H52.2762V21.8548L54.0355 21.3229V23.2322H55.5767V24.9233ZM58.0905 27.3646C58.3269 28.2192 58.9679 28.6465 60.0135 28.6465C60.6863 28.6465 61.1955 28.4192 61.541 27.9646L62.9593 28.7829C62.2865 29.7558 61.2955 30.2422 59.9862 30.2422C58.8588 30.2422 57.9542 29.9013 57.2723 29.2193C56.5903 28.5374 56.2494 27.6782 56.2494 26.6417C56.2494 25.6143 56.5858 24.7597 57.2586 24.0778C57.9314 23.3868 58.7952 23.0413 59.8499 23.0413C60.85 23.0413 61.6728 23.3868 62.3184 24.0778C62.973 24.7688 63.3003 25.6234 63.3003 26.6417C63.3003 26.869 63.2776 27.11 63.2321 27.3646H58.0905ZM58.0633 26.0007H61.541C61.441 25.5371 61.2319 25.1916 60.9136 24.9643C60.6045 24.737 60.2499 24.6233 59.8499 24.6233C59.3771 24.6233 58.9861 24.746 58.677 24.9915C58.3678 25.2279 58.1633 25.5643 58.0633 26.0007ZM70.8156 30.0513H68.7699L66.2878 26.9554V30.0513H64.5285V20.5046H66.2878V26.2326L68.6335 23.2322H70.7338L67.9926 26.6008L70.8156 30.0513ZM76.3835 23.2322H78.1428V30.0513H76.3835V29.2466C75.8562 29.9103 75.1152 30.2422 74.1605 30.2422C73.2513 30.2422 72.4694 29.8967 71.8147 29.2057C71.1692 28.5056 70.8464 27.651 70.8464 26.6417C70.8464 25.6325 71.1692 24.7824 71.8147 24.0914C72.4694 23.3913 73.2513 23.0413 74.1605 23.0413C75.1152 23.0413 75.8562 23.3731 76.3835 24.0369V23.2322ZM73.1376 28.0328C73.4922 28.3874 73.9423 28.5647 74.4878 28.5647C75.0333 28.5647 75.4834 28.3874 75.838 28.0328C76.2017 27.6691 76.3835 27.2054 76.3835 26.6417C76.3835 26.078 76.2017 25.6189 75.838 25.2643C75.4834 24.9006 75.0333 24.7188 74.4878 24.7188C73.9423 24.7188 73.4922 24.9006 73.1376 25.2643C72.7831 25.6189 72.6058 26.078 72.6058 26.6417C72.6058 27.2054 72.7831 27.6691 73.1376 28.0328Z" fill="#3873D3"/>
</svg>
