<svg width="16" height="16" viewBox="0 0 16 16" fill="none" xmlns="http://www.w3.org/2000/svg">
<path d="M10.36 7.52661L6.5867 3.75994C6.52472 3.69746 6.45099 3.64786 6.36975 3.61402C6.28851 3.58017 6.20137 3.56274 6.11336 3.56274C6.02535 3.56274 5.93822 3.58017 5.85698 3.61402C5.77574 3.64786 5.702 3.69746 5.64003 3.75994C5.51586 3.88485 5.44617 4.05382 5.44617 4.22994C5.44617 4.40607 5.51586 4.57503 5.64003 4.69994L8.94003 8.03328L5.64003 11.3333C5.51586 11.4582 5.44617 11.6272 5.44617 11.8033C5.44617 11.9794 5.51586 12.1484 5.64003 12.2733C5.70177 12.3363 5.7754 12.3864 5.85665 12.4207C5.9379 12.455 6.02516 12.4729 6.11336 12.4733C6.20157 12.4729 6.28882 12.455 6.37007 12.4207C6.45132 12.3864 6.52495 12.3363 6.5867 12.2733L10.36 8.50661C10.4277 8.44418 10.4817 8.36841 10.5186 8.28408C10.5556 8.19975 10.5747 8.10868 10.5747 8.01661C10.5747 7.92454 10.5556 7.83347 10.5186 7.74914C10.4817 7.66481 10.4277 7.58904 10.36 7.52661Z" fill="#3873D3"/>
</svg>
