<svg width="16" height="16" viewBox="0 0 16 16" fill="none" xmlns="http://www.w3.org/2000/svg">
<path d="M2.67005 8.66662L11.7301 8.66662L8.53005 11.86C8.40452 11.9855 8.33399 12.1558 8.33399 12.3333C8.33399 12.5108 8.40452 12.6811 8.53005 12.8066C8.65559 12.9322 8.82585 13.0027 9.00339 13.0027C9.18092 13.0027 9.35118 12.9322 9.47672 12.8066L13.8101 8.47329C13.8707 8.40989 13.9183 8.33512 13.9501 8.25329C14.0167 8.09098 14.0167 7.90893 13.9501 7.74662C13.9183 7.66479 13.8707 7.59003 13.8101 7.52662L9.47672 3.19329C9.41474 3.13081 9.34101 3.08121 9.25977 3.04736C9.17853 3.01352 9.09139 2.99609 9.00339 2.99609C8.91538 2.99609 8.82824 3.01352 8.747 3.04736C8.66576 3.08121 8.59203 3.13081 8.53005 3.19329C8.46757 3.25527 8.41797 3.329 8.38413 3.41024C8.35028 3.49148 8.33285 3.57862 8.33285 3.66662C8.33285 3.75463 8.35028 3.84177 8.38413 3.92301C8.41797 4.00425 8.46757 4.07798 8.53005 4.13996L11.7301 7.33329L2.67005 7.33329C2.49324 7.33329 2.32367 7.40353 2.19865 7.52855C2.07362 7.65358 2.00339 7.82314 2.00339 7.99996C2.00339 8.17677 2.07362 8.34634 2.19865 8.47136C2.32367 8.59638 2.49324 8.66662 2.67005 8.66662Z" fill="#3873D3"/>
</svg>
