<svg width="120" height="36" viewBox="0 0 120 36" fill="none" xmlns="http://www.w3.org/2000/svg">
<rect x="0.313144" y="0.313144" width="119.151" height="34.8633" rx="5.53221" fill="#111111" stroke="#333333" stroke-width="0.626288"/>
<path d="M26.7971 17.1113C26.7713 14.2509 29.1398 12.8594 29.2481 12.7946C27.9067 10.8394 25.8277 10.5723 25.0971 10.551C23.3509 10.3673 21.6572 11.5956 20.7677 11.5956C19.8604 11.5956 18.4907 10.5688 17.0144 10.5989C15.1147 10.6282 13.3375 11.7278 12.3627 13.4353C10.3512 16.9169 11.8514 22.0333 13.7787 24.8475C14.7427 26.2267 15.8692 27.7647 17.3437 27.7105C18.7863 27.652 19.3251 26.792 21.0659 26.792C22.7908 26.792 23.2968 27.7105 24.8006 27.6759C26.3488 27.652 27.3235 26.2914 28.2538 24.9008C29.3679 23.3219 29.8153 21.7653 29.8331 21.6854C29.7976 21.673 26.8272 20.5388 26.7971 17.1113ZM23.9564 8.69972C24.7322 7.7297 25.2631 6.41001 25.1157 5.0708C23.9928 5.1205 22.5884 5.84735 21.7797 6.79607C21.0642 7.63208 20.425 9.00236 20.5901 10.291C21.8516 10.3851 23.1468 9.65466 23.9564 8.69972Z" fill="#F5F5F5"/>
<path d="M47.6913 27.5128H45.6753L44.571 24.0436H40.7325L39.6805 27.5128H37.7178L41.5217 15.7022H43.8706L47.6913 27.5128ZM44.2381 22.5882L43.2394 19.5042C43.1338 19.1891 42.9349 18.4472 42.6437 17.2792H42.6082C42.491 17.7816 42.3037 18.5235 42.0472 19.5042L41.0654 22.5882H44.2381ZM57.4544 23.1499C57.4544 24.5983 57.0612 25.7432 56.2738 26.5836C55.5689 27.3318 54.6927 27.7054 53.6479 27.7054C52.5196 27.7054 51.7082 27.3034 51.2155 26.4975V30.966H49.3229V21.7956C49.3229 20.886 49.299 19.9532 49.2528 18.9965H50.9173L51.0229 20.3464H51.0584C51.6896 19.3293 52.6474 18.8208 53.9329 18.8208C54.9378 18.8208 55.7767 19.2175 56.4478 20.0118C57.118 20.8079 57.4544 21.8533 57.4544 23.1499ZM55.5263 23.2192C55.5263 22.3903 55.3399 21.7069 54.9653 21.1682C54.556 20.6082 54.0065 20.3277 53.3177 20.3277C52.8507 20.3277 52.4264 20.4839 52.0473 20.7919C51.6674 21.1025 51.4188 21.5081 51.3025 22.0104C51.2506 22.1983 51.2211 22.3916 51.2147 22.5864V24.0073C51.2147 24.6258 51.4046 25.1486 51.7846 25.5763C52.1645 26.0023 52.6581 26.2162 53.2653 26.2162C53.9781 26.2162 54.533 25.9402 54.9298 25.3926C55.3275 24.8433 55.5263 24.1191 55.5263 23.2192ZM67.2522 23.1499C67.2522 24.5983 66.8589 25.7432 66.0715 26.5836C65.3658 27.3318 64.4905 27.7054 63.4448 27.7054C62.3165 27.7054 61.5051 27.3034 61.0124 26.4975V30.966H59.1198V21.7956C59.1198 20.886 59.0958 19.9532 59.0497 18.9965H60.7141L60.8198 20.3464H60.8553C61.4856 19.3293 62.4434 18.8208 63.7297 18.8208C64.7337 18.8208 65.5726 19.2175 66.2455 20.0118C66.9149 20.8079 67.2522 21.8533 67.2522 23.1499ZM65.3232 23.2192C65.3232 22.3903 65.1359 21.7069 64.7613 21.1682C64.352 20.6082 63.8043 20.3277 63.1154 20.3277C62.6485 20.3277 62.2242 20.4839 61.8433 20.7919C61.4634 21.1025 61.2157 21.5081 61.0994 22.0104C61.0417 22.2447 61.0106 22.4355 61.0106 22.5864V24.0073C61.0106 24.6258 61.2015 25.1486 61.5797 25.5763C61.9596 26.0014 62.4532 26.2162 63.0622 26.2162C63.7759 26.2162 64.3307 25.9402 64.7266 25.3926C65.1243 24.8433 65.3232 24.1191 65.3232 23.2192ZM78.2067 24.1998C78.2067 25.2054 77.8551 26.0227 77.1565 26.6537C76.3877 27.3424 75.3145 27.6877 73.9385 27.6877C72.6673 27.6877 71.6482 27.4427 70.8794 26.9519L71.3171 25.3749C72.1471 25.8665 73.0588 26.1115 74.0512 26.1115C74.765 26.1115 75.3198 25.95 75.7157 25.6296C76.1125 25.3083 76.3132 24.8788 76.3132 24.3427C76.3132 23.8626 76.1472 23.4606 75.8214 23.1331C75.4938 22.8065 74.9523 22.5021 74.1915 22.2225C72.1231 21.4513 71.088 20.3233 71.088 18.8394C71.088 17.8703 71.4538 17.0769 72.1835 16.4565C72.9132 15.8371 73.8808 15.5273 75.0846 15.5273C76.1596 15.5273 77.0553 15.7146 77.7664 16.0882L77.2914 17.6307C76.6221 17.2686 75.8666 17.0875 75.0215 17.0875C74.354 17.0875 73.8302 17.2517 73.4556 17.5783C73.1405 17.8703 72.9807 18.2262 72.9807 18.6486C72.9807 19.1146 73.1626 19.5015 73.5248 19.805C73.8391 20.0846 74.4125 20.389 75.2417 20.7156C76.259 21.1256 77.0065 21.6031 77.4849 22.1515C77.967 22.7 78.2067 23.3842 78.2067 24.1998ZM84.4802 20.4165H82.394V24.5513C82.394 25.603 82.7616 26.1275 83.4984 26.1275C83.8366 26.1275 84.1171 26.0991 84.339 26.0396L84.3914 27.4764C84.0186 27.6158 83.5277 27.6859 82.9196 27.6859C82.1721 27.6859 81.588 27.4578 81.1663 27.0016C80.7464 26.5455 80.5352 25.7813 80.5352 24.7057V20.4129H79.2923V18.993H80.5352V17.4337L82.394 16.8728V18.993H84.4802V20.4165ZM93.874 23.1846C93.874 24.4936 93.4994 25.5683 92.752 26.4088C91.9699 27.2741 90.9295 27.7054 89.6325 27.7054C88.3808 27.7054 87.3857 27.2909 86.6435 26.4629C85.9014 25.6331 85.5304 24.5877 85.5304 23.3266C85.5304 22.0069 85.9138 20.9259 86.6782 20.0855C87.4443 19.2441 88.4758 18.8235 89.7728 18.8235C91.0227 18.8235 92.0267 19.2388 92.7866 20.0677C93.5127 20.8718 93.874 21.9101 93.874 23.1846ZM91.9122 23.228C91.9122 22.4479 91.7435 21.7788 91.4053 21.2188C91.0085 20.5425 90.4403 20.2044 89.7044 20.2044C88.9463 20.2044 88.3648 20.5425 87.9689 21.2188C87.6298 21.7788 87.4611 22.4595 87.4611 23.2635C87.4611 24.0445 87.6298 24.7155 87.9689 25.2737C88.3782 25.95 88.949 26.2881 89.6884 26.2881C90.4119 26.2881 90.9792 25.9429 91.3893 25.2568C91.7373 24.6835 91.9122 24.0099 91.9122 23.228ZM100.029 20.6606C99.8317 20.625 99.6321 20.6075 99.432 20.6082C98.7662 20.6082 98.2514 20.8585 97.8892 21.3626C97.5749 21.8063 97.4169 22.3672 97.4169 23.0443V27.5128H95.5243V21.6785C95.526 20.7845 95.5076 19.8906 95.4693 18.9974H97.1178L97.187 20.6268H97.2394C97.44 20.0668 97.7542 19.6151 98.1857 19.277C98.5806 18.9815 99.0604 18.8215 99.5537 18.8208C99.7285 18.8208 99.8866 18.8332 100.027 18.8554L100.029 20.6606ZM108.493 22.8518C108.498 23.1394 108.475 23.4268 108.424 23.7099H102.746C102.767 24.5513 103.042 25.1956 103.57 25.6393C104.048 26.0352 104.667 26.234 105.427 26.234C106.267 26.234 107.034 26.1008 107.724 25.8319L108.021 27.1445C107.215 27.496 106.263 27.6708 105.165 27.6708C103.844 27.6708 102.807 27.2821 102.053 26.5064C101.3 25.7299 100.923 24.6862 100.923 23.3789C100.923 22.0956 101.273 21.0262 101.975 20.1733C102.71 19.2628 103.704 18.8075 104.954 18.8075C106.181 18.8075 107.111 19.2628 107.742 20.1733C108.242 20.8948 108.493 21.7894 108.493 22.8518ZM106.688 22.361C106.702 21.7992 106.577 21.3155 106.321 20.9064C105.993 20.3792 105.489 20.1165 104.813 20.1165C104.195 20.1165 103.69 20.373 103.307 20.8877C102.992 21.2969 102.804 21.7885 102.747 22.3592L106.688 22.361Z" fill="#F5F5F5"/>
<path d="M40.1869 11.527C39.6605 11.527 39.2051 11.5013 38.826 11.4578V5.7477C39.3562 5.66582 39.8919 5.62547 40.4284 5.627C42.5989 5.627 43.5984 6.69464 43.5984 8.435C43.5984 10.4425 42.4178 11.527 40.1869 11.527ZM40.5047 6.35917C40.2118 6.35917 39.9623 6.37692 39.7555 6.41952V10.7602C39.8673 10.778 40.0822 10.7859 40.384 10.7859C41.8061 10.7859 42.6157 9.97656 42.6157 8.46074C42.6157 7.1091 41.8834 6.35917 40.5047 6.35917ZM46.7134 11.5705C45.4902 11.5705 44.6974 10.6573 44.6974 9.41745C44.6974 8.12527 45.507 7.20406 46.7827 7.20406C47.9882 7.20406 48.7987 8.07379 48.7987 9.34911C48.7987 10.6573 47.9633 11.5705 46.7134 11.5705ZM46.7489 7.88387C46.0769 7.88387 45.6464 8.51221 45.6464 9.39082C45.6464 10.2526 46.0858 10.8809 46.7401 10.8809C47.3943 10.8809 47.8337 10.2091 47.8337 9.37307C47.8337 8.52109 47.4032 7.88387 46.7489 7.88387ZM55.7744 7.29015L54.465 11.4755H53.6119L53.0695 9.65795C52.9346 9.21336 52.8224 8.76224 52.7331 8.30632H52.7153C52.647 8.76248 52.5173 9.21954 52.3797 9.65795L51.8027 11.4755H50.9408L49.7086 7.29015H50.6647L51.1387 9.27989C51.2506 9.7538 51.3447 10.2011 51.4228 10.6235H51.4405C51.5089 10.2712 51.6208 9.83101 51.785 9.28876L52.3797 7.29103H53.1379L53.7069 9.24616C53.8445 9.72008 53.9563 10.1851 54.0433 10.6244H54.0682C54.1286 10.194 54.2235 9.73694 54.3523 9.24616L54.8609 7.29103L55.7744 7.29015ZM60.5947 11.4755H59.6644V9.07221C59.6644 8.33205 59.3803 7.96108 58.8202 7.96108C58.2689 7.96108 57.8898 8.435 57.8898 8.98613V11.4755H56.9595V8.48647C56.9595 8.11639 56.9506 7.71969 56.9249 7.28926H57.7434L57.7869 7.93535H57.8126C58.0629 7.48805 58.5707 7.20406 59.1397 7.20406C60.0186 7.20406 60.5956 7.87589 60.5956 8.96927L60.5947 11.4755ZM63.1602 11.4755H62.229V5.36963H63.1602V11.4755ZM66.5522 11.5705C65.3298 11.5705 64.5362 10.6573 64.5362 9.41745C64.5362 8.12527 65.3458 7.20406 66.6205 7.20406C67.827 7.20406 68.6366 8.07379 68.6366 9.34911C68.6374 10.6573 67.8012 11.5705 66.5522 11.5705ZM66.5868 7.88387C65.9148 7.88387 65.4843 8.51221 65.4843 9.39082C65.4843 10.2526 65.9246 10.8809 66.5771 10.8809C67.2322 10.8809 67.6707 10.2091 67.6707 9.37307C67.6716 8.52109 67.2419 7.88387 66.5868 7.88387ZM72.3046 11.4755L72.2371 10.9936H72.2123C71.9282 11.3814 71.5137 11.5705 70.9881 11.5705C70.238 11.5705 69.7054 11.0451 69.7054 10.3387C69.7054 9.30562 70.6011 8.77136 72.1519 8.77136V8.69415C72.1519 8.14302 71.8599 7.86701 71.2828 7.86701C70.8701 7.86701 70.5079 7.97085 70.1892 8.17763L70.0001 7.56615C70.3871 7.32476 70.8701 7.20406 71.4373 7.20406C72.531 7.20406 73.0831 7.78092 73.0831 8.93554V10.4771C73.0831 10.8995 73.1018 11.227 73.1435 11.4764L72.3046 11.4755ZM72.1768 9.39082C71.1435 9.39082 70.6251 9.64109 70.6251 10.2348C70.6251 10.6741 70.8923 10.8889 71.2633 10.8889C71.7365 10.8889 72.1768 10.5277 72.1768 10.0369V9.39082ZM77.6008 11.4755L77.5573 10.8037H77.5315C77.2643 11.3113 76.8151 11.5705 76.1875 11.5705C75.1782 11.5705 74.4307 10.683 74.4307 9.43431C74.4307 8.12527 75.2057 7.20317 76.2638 7.20317C76.824 7.20317 77.2208 7.39221 77.4445 7.77205H77.4632V5.36963H78.3944V10.3475C78.3944 10.7522 78.4041 11.1312 78.429 11.4755H77.6008ZM77.4632 9.01275C77.4632 8.42701 77.0752 7.92736 76.4831 7.92736C75.7934 7.92736 75.3717 8.53884 75.3717 9.3997C75.3717 10.2437 75.8093 10.8214 76.4645 10.8214C77.0495 10.8214 77.4632 10.3129 77.4632 9.71032V9.01275ZM84.2986 11.5705C83.0762 11.5705 82.2835 10.6573 82.2835 9.41745C82.2835 8.12527 83.0931 7.20406 84.3678 7.20406C85.5743 7.20406 86.3838 8.07379 86.3838 9.34911C86.3847 10.6573 85.5494 11.5705 84.2986 11.5705ZM84.3332 7.88387C83.6621 7.88387 83.2316 8.51221 83.2316 9.39082C83.2316 10.2526 83.671 10.8809 84.3243 10.8809C84.9795 10.8809 85.418 10.2091 85.418 9.37307C85.4198 8.52109 84.9892 7.88387 84.3332 7.88387ZM91.387 11.4755H90.4558V9.07221C90.4558 8.33205 90.1717 7.96108 89.6116 7.96108C89.0603 7.96108 88.6822 8.435 88.6822 8.98613V11.4755H87.7509V8.48647C87.7509 8.11639 87.7421 7.71969 87.7163 7.28926H88.5348L88.5783 7.93535H88.604C88.8535 7.48805 89.3621 7.20317 89.9303 7.20317C90.8091 7.20317 91.387 7.875 91.387 8.96838V11.4755ZM97.6463 7.98771H96.6228V10.02C96.6228 10.5375 96.8021 10.7957 97.1643 10.7957C97.3285 10.7957 97.4661 10.778 97.5771 10.7522L97.6028 11.4587C97.4226 11.5279 97.1812 11.5625 96.8811 11.5625C96.1479 11.5625 95.7093 11.1578 95.7093 10.0981V7.98771H95.0986V7.29015H95.7093V6.52336L96.6228 6.24735V7.28926H97.6463V7.98771ZM102.571 11.4755H101.642V9.08996C101.642 8.34093 101.359 7.96197 100.798 7.96197C100.316 7.96197 99.8665 8.28945 99.8665 8.9524V11.4755H98.9371V5.36963H99.8665V7.88387H99.8852C100.178 7.42771 100.602 7.20317 101.144 7.20317C102.03 7.20317 102.571 7.89186 102.571 8.98613V11.4755ZM107.617 9.60648H104.825C104.843 10.399 105.368 10.8463 106.144 10.8463C106.557 10.8463 106.937 10.7771 107.273 10.6484L107.417 11.2945C107.022 11.4666 106.555 11.5527 106.013 11.5527C104.704 11.5527 103.929 10.7256 103.929 9.44318C103.929 8.15988 104.722 7.19518 105.908 7.19518C106.978 7.19518 107.649 7.98771 107.649 9.18492C107.655 9.32621 107.644 9.46771 107.617 9.60648ZM106.764 8.94353C106.764 8.29744 106.438 7.84127 105.844 7.84127C105.309 7.84127 104.887 8.30632 104.826 8.94353H106.764Z" fill="#F5F5F5"/>
</svg>
