<svg width="24" height="24" viewBox="0 0 24 24" fill="none" xmlns="http://www.w3.org/2000/svg">
<path d="M18.9949 13.0001L7.40492 13.0001L11.2049 16.7901C11.3932 16.9784 11.499 17.2338 11.499 17.5001C11.499 17.7664 11.3932 18.0218 11.2049 18.2101C11.0166 18.3984 10.7612 18.5041 10.4949 18.5041C10.2286 18.5041 9.97323 18.3984 9.78492 18.2101L4.28492 12.7101C4.19388 12.615 4.12252 12.5028 4.07492 12.3801C3.9749 12.1366 3.9749 11.8635 4.07492 11.6201C4.12252 11.4973 4.19388 11.3852 4.28492 11.2901L9.78492 5.79006C9.87789 5.69633 9.98849 5.62194 10.1103 5.57117C10.2322 5.5204 10.3629 5.49426 10.4949 5.49426C10.6269 5.49426 10.7576 5.5204 10.8795 5.57117C11.0014 5.62194 11.112 5.69633 11.2049 5.79006C11.2987 5.88302 11.373 5.99362 11.4238 6.11548C11.4746 6.23734 11.5007 6.36805 11.5007 6.50006C11.5007 6.63207 11.4746 6.76278 11.4238 6.88464C11.373 7.0065 11.2987 7.11709 11.2049 7.21006L7.40492 11.0001L18.9949 11.0001C19.2601 11.0001 19.5145 11.1054 19.702 11.293C19.8896 11.4805 19.9949 11.7348 19.9949 12.0001C19.9949 12.2653 19.8896 12.5196 19.702 12.7072C19.5145 12.8947 19.2601 13.0001 18.9949 13.0001Z" fill="#3873D3"/>
</svg>
