<svg width="16" height="16" viewBox="0 0 16 16" fill="none" xmlns="http://www.w3.org/2000/svg">
<path d="M14.4713 7.52873L9.13798 2.1954C9.04476 2.10216 8.92598 2.03867 8.79667 2.01294C8.66736 1.98721 8.53332 2.00041 8.41151 2.05086C8.28969 2.10131 8.18558 2.18675 8.11233 2.29637C8.03908 2.406 7.99998 2.53489 7.99998 2.66673V5.03001C6.17885 5.19858 4.48615 6.04064 3.25313 7.39142C2.02011 8.7422 1.33552 10.5045 1.33331 12.3334V13.3334C1.3333 13.4718 1.3764 13.6069 1.45661 13.7197C1.53683 13.8326 1.65019 13.9176 1.78096 13.9631C1.91172 14.0086 2.05341 14.0122 2.18634 13.9735C2.31927 13.9348 2.43685 13.8557 2.52277 13.7471C3.17586 12.9704 3.9772 12.3317 4.87996 11.8682C5.78272 11.4046 6.76879 11.1257 7.78058 11.0476C7.81378 11.0434 7.89711 11.0369 7.99998 11.0303V13.3334C7.99998 13.4652 8.03908 13.5941 8.11233 13.7038C8.18558 13.8134 8.28969 13.8988 8.41151 13.9493C8.53332 13.9997 8.66736 14.0129 8.79667 13.9872C8.92598 13.9615 9.04476 13.898 9.13798 13.8047L14.4713 8.4714C14.5332 8.40951 14.5823 8.33603 14.6159 8.25516C14.6494 8.17429 14.6666 8.0876 14.6666 8.00006C14.6666 7.91252 14.6494 7.82584 14.6159 7.74497C14.5823 7.6641 14.5332 7.59062 14.4713 7.52873ZM9.33331 11.724V10.3334C9.33334 10.2458 9.31611 10.1591 9.28261 10.0782C9.24912 9.99735 9.20001 9.92385 9.1381 9.86194C9.07619 9.80003 9.00269 9.75093 8.9218 9.71743C8.8409 9.68394 8.7542 9.66671 8.66665 9.66673C8.49673 9.66673 7.80271 9.69961 7.62563 9.7234C5.82869 9.8889 4.11822 10.5716 2.70115 11.6889C2.86191 10.2184 3.55943 8.85894 4.66016 7.87078C5.76088 6.88261 7.18744 6.33521 8.66665 6.3334C8.7542 6.33342 8.8409 6.31619 8.9218 6.2827C9.00269 6.2492 9.07619 6.2001 9.1381 6.13819C9.20001 6.07628 9.24912 6.00277 9.28261 5.92188C9.31611 5.84099 9.33334 5.75429 9.33331 5.66673V4.2761L13.0573 8.00006L9.33331 11.724Z" fill="#3873D3"/>
</svg>
