<svg width="16" height="16" viewBox="0 0 16 16" fill="none" xmlns="http://www.w3.org/2000/svg">
<path d="M14.2133 3.36668L10.2133 2.03335H10.1666C10.1356 2.03023 10.1043 2.03023 10.0733 2.03335H9.91998H9.83331H9.78665L5.99998 3.33335L2.21332 2.03335C2.11306 2.00029 2.00638 1.99151 1.90207 2.00774C1.79776 2.02397 1.69879 2.06473 1.61332 2.12668C1.52715 2.18803 1.45683 2.26899 1.40814 2.36289C1.35945 2.45678 1.3338 2.56092 1.33332 2.66668V12C1.33295 12.1398 1.37653 12.2761 1.45788 12.3898C1.53923 12.5034 1.65423 12.5886 1.78665 12.6334L5.78665 13.9667C5.92095 14.0105 6.06568 14.0105 6.19998 13.9667L9.99998 12.7L13.7866 14C13.8574 14.0096 13.9292 14.0096 14 14C14.1394 14.002 14.2754 13.9574 14.3866 13.8734C14.4728 13.812 14.5431 13.731 14.5918 13.6371C14.6405 13.5432 14.6662 13.4391 14.6666 13.3334V4.00002C14.667 3.86025 14.6234 3.72391 14.5421 3.61026C14.4607 3.49661 14.3457 3.41141 14.2133 3.36668ZM5.33331 12.4067L2.66665 11.52V3.59335L5.33331 4.48002V12.4067ZM9.33331 11.52L6.66665 12.4067V4.48002L9.33331 3.59335V11.52ZM13.3333 12.4067L10.6666 11.52V3.59335L13.3333 4.48002V12.4067Z" fill="#3873D3"/>
</svg>
