<svg width="16" height="16" viewBox="0 0 16 16" fill="none" xmlns="http://www.w3.org/2000/svg">
<path d="M9.81335 5.86004L6.95335 8.72671L5.85335 7.62671C5.79358 7.55692 5.72004 7.50024 5.63733 7.46022C5.55462 7.42021 5.46453 7.39772 5.37271 7.39418C5.2809 7.39063 5.18935 7.4061 5.1038 7.43962C5.01825 7.47313 4.94055 7.52397 4.87558 7.58894C4.81061 7.65391 4.75977 7.73161 4.72625 7.81716C4.69274 7.90271 4.67727 7.99426 4.68081 8.08608C4.68436 8.17789 4.70685 8.26798 4.74686 8.35069C4.78688 8.4334 4.84356 8.50694 4.91335 8.56671L6.48001 10.14C6.54231 10.2018 6.61618 10.2507 6.69741 10.2839C6.77863 10.3171 6.86561 10.3339 6.95335 10.3334C7.12824 10.3326 7.29584 10.2632 7.42001 10.14L10.7533 6.80671C10.8158 6.74473 10.8654 6.671 10.8993 6.58976C10.9331 6.50852 10.9505 6.42138 10.9505 6.33337C10.9505 6.24537 10.9331 6.15823 10.8993 6.07699C10.8654 5.99575 10.8158 5.92202 10.7533 5.86004C10.6284 5.73587 10.4595 5.66618 10.2833 5.66618C10.1072 5.66618 9.93825 5.73587 9.81335 5.86004ZM8.00001 1.33337C6.68147 1.33337 5.39254 1.72437 4.29621 2.45691C3.19988 3.18945 2.3454 4.23064 1.84082 5.44882C1.33623 6.66699 1.20421 8.00744 1.46144 9.30064C1.71868 10.5938 2.35362 11.7817 3.28597 12.7141C4.21832 13.6464 5.4062 14.2814 6.69941 14.5386C7.99262 14.7958 9.33306 14.6638 10.5512 14.1592C11.7694 13.6547 12.8106 12.8002 13.5431 11.7038C14.2757 10.6075 14.6667 9.31858 14.6667 8.00004C14.6667 7.12456 14.4942 6.25766 14.1592 5.44882C13.8242 4.63998 13.3331 3.90505 12.7141 3.286C12.095 2.66694 11.3601 2.17588 10.5512 1.84084C9.7424 1.50581 8.87549 1.33337 8.00001 1.33337ZM8.00001 13.3334C6.94518 13.3334 5.91403 13.0206 5.03697 12.4345C4.15991 11.8485 3.47632 11.0156 3.07266 10.041C2.66899 9.06648 2.56337 7.99412 2.76916 6.95956C2.97495 5.92499 3.4829 4.97468 4.22878 4.2288C4.97466 3.48292 5.92497 2.97497 6.95953 2.76919C7.9941 2.5634 9.06645 2.66902 10.041 3.07268C11.0155 3.47635 11.8485 4.15994 12.4345 5.037C13.0206 5.91406 13.3333 6.94521 13.3333 8.00004C13.3333 9.41453 12.7714 10.7711 11.7712 11.7713C10.7711 12.7715 9.4145 13.3334 8.00001 13.3334Z" fill="#3873D3"/>
</svg>
