<svg width="16" height="16" viewBox="0 0 16 16" fill="none" xmlns="http://www.w3.org/2000/svg">
<path d="M14.6133 7.73341C13.2666 4.60675 10.7333 2.66675 7.99992 2.66675C5.26659 2.66675 2.73326 4.60675 1.38659 7.73341C1.34988 7.81753 1.33093 7.90831 1.33093 8.00008C1.33093 8.09185 1.34988 8.18264 1.38659 8.26675C2.73326 11.3934 5.26659 13.3334 7.99992 13.3334C10.7333 13.3334 13.2666 11.3934 14.6133 8.26675C14.65 8.18264 14.6689 8.09185 14.6689 8.00008C14.6689 7.90831 14.65 7.81753 14.6133 7.73341ZM7.99992 12.0001C5.88659 12.0001 3.88659 10.4734 2.73326 8.00008C3.88659 5.52675 5.88659 4.00008 7.99992 4.00008C10.1133 4.00008 12.1133 5.52675 13.2666 8.00008C12.1133 10.4734 10.1133 12.0001 7.99992 12.0001ZM7.99992 5.33341C7.47251 5.33341 6.95693 5.48981 6.5184 5.78283C6.07987 6.07585 5.73808 6.49232 5.53624 6.97959C5.33441 7.46686 5.2816 8.00304 5.38449 8.52032C5.48739 9.0376 5.74136 9.51276 6.1143 9.8857C6.48724 10.2586 6.9624 10.5126 7.47968 10.6155C7.99696 10.7184 8.53314 10.6656 9.02041 10.4638C9.50768 10.2619 9.92416 9.92013 10.2172 9.4816C10.5102 9.04307 10.6666 8.5275 10.6666 8.00008C10.6666 7.29284 10.3856 6.61456 9.88554 6.11446C9.38544 5.61437 8.70717 5.33341 7.99992 5.33341ZM7.99992 9.33341C7.73621 9.33341 7.47843 9.25522 7.25916 9.10871C7.0399 8.9622 6.869 8.75396 6.76808 8.51033C6.66717 8.26669 6.64076 7.9986 6.69221 7.73996C6.74366 7.48132 6.87064 7.24374 7.05711 7.05727C7.24358 6.8708 7.48116 6.74381 7.7398 6.69237C7.99844 6.64092 8.26653 6.66733 8.51017 6.76824C8.7538 6.86916 8.96204 7.04006 9.10855 7.25932C9.25506 7.47859 9.33325 7.73637 9.33325 8.00008C9.33325 8.3537 9.19278 8.69284 8.94273 8.94289C8.69268 9.19294 8.35354 9.33341 7.99992 9.33341Z" fill="#3873D3"/>
</svg>
