<svg width="14" height="14" viewBox="0 0 14 14" fill="none" xmlns="http://www.w3.org/2000/svg">
<path d="M7 0L8.91531 1.73772L11.4995 1.63769L11.8497 4.2L13.8937 5.78446L12.5149 7.97243L13.0622 10.5L10.5996 11.2898L9.39414 13.5778L7 12.6L4.60586 13.5778L3.40039 11.2898L0.937822 10.5L1.48508 7.97243L0.106346 5.78446L2.15026 4.2L2.50049 1.63769L5.08469 1.73772L7 0Z" fill="#3873D3"/>
<path d="M9.76549 5.16397C9.72296 5.12485 9.67267 5.09399 9.61759 5.07296C9.56216 5.05179 9.50285 5.04094 9.44303 5.04094C9.38321 5.04094 9.32389 5.05179 9.26847 5.07296C9.21305 5.09412 9.16248 5.12523 9.11978 5.16469C9.11977 5.1647 9.11976 5.16471 9.11975 5.16471L6.11767 7.92015L4.87593 6.77833L4.87594 6.77832L4.87524 6.7777C4.83103 6.73855 4.77907 6.70797 4.72243 6.68751C4.66578 6.66705 4.60542 6.65706 4.54475 6.65802C4.48408 6.65898 4.42411 6.67088 4.36824 6.69314C4.31237 6.7154 4.26155 6.74764 4.2188 6.7882C4.17605 6.82877 4.14218 6.87691 4.11936 6.92998C4.09654 6.98306 4.08528 7.03991 4.08636 7.09723C4.08744 7.15455 4.10084 7.21098 4.12563 7.26327C4.15035 7.3154 4.18587 7.36228 4.22993 7.40137L5.79436 8.83535C5.79439 8.83538 5.79442 8.8354 5.79445 8.83543C5.83714 8.87486 5.88768 8.90595 5.94308 8.92711C5.9985 8.94827 6.05782 8.95912 6.11764 8.95912C6.17746 8.95912 6.23677 8.94827 6.2922 8.92711C6.34759 8.90595 6.39814 8.87486 6.44083 8.83543C6.44086 8.8354 6.44089 8.83538 6.44092 8.83535L9.76544 5.78805C9.81166 5.74879 9.84885 5.70097 9.87444 5.64741C9.90019 5.59353 9.91356 5.53515 9.91356 5.47599C9.91356 5.41682 9.90019 5.35844 9.87444 5.30456C9.84886 5.25103 9.81168 5.20322 9.76549 5.16397ZM9.76549 5.16397C9.76521 5.16373 9.76493 5.16349 9.76465 5.16326L9.73237 5.20144L9.7663 5.16471C9.76603 5.16447 9.76576 5.16422 9.76549 5.16397Z" fill="white" stroke="white" stroke-width="0.1"/>
</svg>
