<svg width="16" height="16" viewBox="0 0 16 16" fill="none" xmlns="http://www.w3.org/2000/svg">
<path d="M4.66666 3.99999C4.5348 3.99999 4.40591 4.03909 4.29628 4.11234C4.18664 4.1856 4.1012 4.28972 4.05074 4.41154C4.00028 4.53335 3.98708 4.6674 4.0128 4.79672C4.03852 4.92604 4.10202 5.04483 4.19525 5.13806C4.28849 5.2313 4.40728 5.29479 4.5366 5.32051C4.66592 5.34624 4.79996 5.33304 4.92178 5.28258C5.0436 5.23212 5.14772 5.14667 5.22097 5.03704C5.29422 4.9274 5.33332 4.79851 5.33332 4.66666C5.33332 4.48985 5.26309 4.32028 5.13806 4.19525C5.01304 4.07023 4.84347 3.99999 4.66666 3.99999ZM14.4733 7.85332L8.15332 1.54666C8.09116 1.47963 8.01589 1.42611 7.93216 1.38941C7.84844 1.35271 7.75807 1.33362 7.66666 1.33332H3.66666C3.57892 1.33282 3.49194 1.34963 3.41072 1.38281C3.32949 1.41599 3.25562 1.46487 3.19332 1.52666L1.52666 3.18666C1.46487 3.24895 1.41599 3.32283 1.38281 3.40405C1.34963 3.48528 1.33282 3.57225 1.33332 3.65999V7.65999C1.33578 7.8365 1.40483 8.00557 1.52666 8.13332L7.85332 14.4667C7.98108 14.5885 8.15015 14.6575 8.32666 14.66C8.41439 14.6605 8.50137 14.6437 8.58259 14.6105C8.66382 14.5773 8.7377 14.5284 8.79999 14.4667L14.4733 8.79332C14.5351 8.73103 14.584 8.65715 14.6172 8.57593C14.6503 8.4947 14.6672 8.40773 14.6667 8.31999C14.6625 8.14579 14.5936 7.9794 14.4733 7.85332ZM8.32666 13.06L2.66666 7.39332V3.93332L3.93332 2.66666H7.38666L13.0533 8.32666L8.32666 13.06Z" fill="#3873D3"/>
</svg>
