<svg width="16" height="16" viewBox="0 0 16 16" fill="none" xmlns="http://www.w3.org/2000/svg">
<path d="M7.99999 1.33337C6.5855 1.33337 5.22895 1.89528 4.22875 2.89547C3.22856 3.89567 2.66666 5.25222 2.66666 6.66671C2.66666 10.2667 7.36666 14.3334 7.56666 14.5067C7.68741 14.61 7.84109 14.6668 7.99999 14.6668C8.15889 14.6668 8.31257 14.61 8.43332 14.5067C8.66666 14.3334 13.3333 10.2667 13.3333 6.66671C13.3333 5.25222 12.7714 3.89567 11.7712 2.89547C10.771 1.89528 9.41448 1.33337 7.99999 1.33337ZM7.99999 13.1C6.57999 11.7667 3.99999 8.89337 3.99999 6.66671C3.99999 5.60584 4.42142 4.58843 5.17156 3.83828C5.92171 3.08813 6.93912 2.66671 7.99999 2.66671C9.06086 2.66671 10.0783 3.08813 10.8284 3.83828C11.5786 4.58843 12 5.60584 12 6.66671C12 8.89337 9.41999 11.7734 7.99999 13.1ZM7.99999 4.00004C7.47257 4.00004 6.957 4.15644 6.51847 4.44946C6.07994 4.74247 5.73814 5.15895 5.53631 5.64622C5.33448 6.13349 5.28167 6.66967 5.38456 7.18695C5.48746 7.70423 5.74143 8.17939 6.11437 8.55233C6.48731 8.92527 6.96247 9.17924 7.47975 9.28214C7.99703 9.38503 8.53321 9.33222 9.02048 9.13039C9.50775 8.92855 9.92422 8.58676 10.2172 8.14823C10.5103 7.7097 10.6667 7.19412 10.6667 6.66671C10.6667 5.95946 10.3857 5.28119 9.88561 4.78109C9.38551 4.28099 8.70723 4.00004 7.99999 4.00004ZM7.99999 8.00004C7.73628 8.00004 7.4785 7.92184 7.25923 7.77533C7.03996 7.62883 6.86907 7.42059 6.76815 7.17695C6.66723 6.93332 6.64083 6.66523 6.69228 6.40659C6.74372 6.14795 6.87071 5.91037 7.05718 5.7239C7.24365 5.53743 7.48123 5.41044 7.73987 5.35899C7.99851 5.30755 8.2666 5.33395 8.51023 5.43487C8.75387 5.53578 8.96211 5.70668 9.10862 5.92595C9.25512 6.14521 9.33332 6.403 9.33332 6.66671C9.33332 7.02033 9.19285 7.35947 8.9428 7.60952C8.69275 7.85956 8.35361 8.00004 7.99999 8.00004Z" fill="#91AAB8"/>
</svg>
