<svg width="24" height="24" viewBox="0 0 24 24" fill="none" xmlns="http://www.w3.org/2000/svg">
<circle cx="11.9999" cy="11.9999" r="9.99992" fill="#3873D3"/>
<path d="M11.9526 12.1619H22.0001V22H11.9526V12.1619Z" fill="#3873D3"/>
<ellipse cx="11.9999" cy="11.9998" rx="6.97425" ry="6.9362" fill="white"/>
<path d="M15.7668 10.8442C15.8041 10.8442 15.8344 10.8744 15.8344 10.9117V13.1069C15.8344 13.1442 15.8041 13.1744 15.7668 13.1744H13.1996V15.7478C13.1996 15.7851 13.1693 15.8154 13.132 15.8154H10.9251C10.8877 15.8154 10.8575 15.7851 10.8575 15.7478V13.1744H8.29022C8.25291 13.1744 8.22266 13.1442 8.22266 13.1069V10.9117C8.22266 10.8744 8.25291 10.8442 8.29022 10.8442H10.8575V8.29022C10.8575 8.25291 10.8877 8.22266 10.9251 8.22266H13.132C13.1693 8.22266 13.1996 8.25291 13.1996 8.29022V10.8442H15.7668Z" fill="#EC3E34"/>
<path d="M13.1996 13.1744V12.9645H12.9896V13.1744H13.1996ZM10.8575 13.1744H11.0674V12.9645H10.8575V13.1744ZM10.8575 10.8442V11.0541H11.0674V10.8442H10.8575ZM13.1996 10.8442H12.9896V11.0541H13.1996V10.8442ZM15.6245 10.9117V13.1069H16.0443V10.9117H15.6245ZM15.7668 12.9645H13.1996V13.3843H15.7668V12.9645ZM12.9896 13.1744V15.7478H13.4095V13.1744H12.9896ZM13.132 15.6054H10.9251V16.0253H13.132V15.6054ZM11.0674 15.7478V13.1744H10.6476V15.7478H11.0674ZM10.8575 12.9645H8.29022V13.3843H10.8575V12.9645ZM8.43257 13.1069V10.9117H8.01274V13.1069H8.43257ZM8.29022 11.0541H10.8575V10.6343H8.29022V11.0541ZM11.0674 10.8442V8.29022H10.6476V10.8442H11.0674ZM10.9251 8.43257H13.132V8.01274H10.9251V8.43257ZM12.9896 8.29022V10.8442H13.4095V8.29022H12.9896ZM13.1996 11.0541H15.7668V10.6343H13.1996V11.0541ZM13.132 8.43257C13.0534 8.43257 12.9896 8.36884 12.9896 8.29022H13.4095C13.4095 8.13697 13.2852 8.01274 13.132 8.01274V8.43257ZM11.0674 8.29022C11.0674 8.36884 11.0037 8.43257 10.9251 8.43257V8.01274C10.7718 8.01274 10.6476 8.13697 10.6476 8.29022H11.0674ZM8.43257 10.9117C8.43257 10.9904 8.36884 11.0541 8.29022 11.0541V10.6343C8.13697 10.6343 8.01274 10.7585 8.01274 10.9117H8.43257ZM10.9251 15.6054C11.0037 15.6054 11.0674 15.6692 11.0674 15.7478H10.6476C10.6476 15.901 10.7718 16.0253 10.9251 16.0253V15.6054ZM12.9896 15.7478C12.9896 15.6692 13.0534 15.6054 13.132 15.6054V16.0253C13.2852 16.0253 13.4095 15.901 13.4095 15.7478H12.9896ZM8.29022 12.9645C8.36884 12.9645 8.43257 13.0282 8.43257 13.1069H8.01274C8.01274 13.2601 8.13697 13.3843 8.29022 13.3843V12.9645ZM15.6245 13.1069C15.6245 13.0282 15.6882 12.9645 15.7668 12.9645V13.3843C15.9201 13.3843 16.0443 13.2601 16.0443 13.1069H15.6245ZM16.0443 10.9117C16.0443 10.7585 15.9201 10.6343 15.7668 10.6343V11.0541C15.6882 11.0541 15.6245 10.9904 15.6245 10.9117H16.0443Z" fill="#EC3E34"/>
</svg>
