<svg width="120" height="36" viewBox="0 0 120 36" fill="none" xmlns="http://www.w3.org/2000/svg">
<rect x="0.535678" y="0.313144" width="119.151" height="34.8633" rx="5.53221" fill="#111111" stroke="#333333" stroke-width="0.626288"/>
<path d="M42.2812 8.63248C42.2812 9.34228 42.1038 9.96334 41.6601 10.407C41.1278 10.9393 40.5067 11.2055 39.7082 11.2055C38.9097 11.2055 38.2886 10.9393 37.7563 10.407C37.2239 9.87462 36.9578 9.25355 36.9578 8.45504C36.9578 7.65652 37.2239 7.03545 37.7563 6.50311C38.2886 5.97076 38.9097 5.70459 39.7082 5.70459C40.0631 5.70459 40.418 5.79331 40.7729 5.97076C41.1278 6.14821 41.394 6.32566 41.5714 6.59183L41.1278 7.03545C40.7729 6.59183 40.3293 6.41438 39.7082 6.41438C39.1759 6.41438 38.6435 6.59183 38.2886 7.03545C37.845 7.39035 37.6676 7.92269 37.6676 8.54376C37.6676 9.16483 37.845 9.69717 38.2886 10.0521C38.7322 10.407 39.1759 10.6731 39.7082 10.6731C40.3293 10.6731 40.7729 10.4957 41.2165 10.0521C41.4827 9.7859 41.6601 9.431 41.6601 8.98738H39.7082V8.27759H42.2812V8.63248ZM46.3625 6.41438H43.967V8.10014H46.1851V8.72121H43.967V10.407H46.3625V11.1168H43.2572V5.79331H46.3625V6.41438ZM49.2904 11.1168H48.5806V6.41438H47.0723V5.79331H50.7987V6.41438H49.2904V11.1168ZM53.3717 11.1168V5.79331H54.0815V11.1168H53.3717ZM57.0981 11.1168H56.3883V6.41438H54.88V5.79331H58.5177V6.41438H57.0094V11.1168H57.0981ZM65.5269 10.407C64.9946 10.9393 64.3735 11.2055 63.575 11.2055C62.7765 11.2055 62.1554 10.9393 61.623 10.407C61.0907 9.87462 60.8245 9.25355 60.8245 8.45504C60.8245 7.65652 61.0907 7.03545 61.623 6.50311C62.1554 5.97076 62.7765 5.70459 63.575 5.70459C64.3735 5.70459 64.9946 5.97076 65.5269 6.50311C66.0592 7.03545 66.3254 7.65652 66.3254 8.45504C66.3254 9.25355 66.0592 9.87462 65.5269 10.407ZM62.1554 9.96334C62.5103 10.3182 63.0426 10.5844 63.575 10.5844C64.1073 10.5844 64.6397 10.407 64.9946 9.96334C65.3495 9.60845 65.6156 9.0761 65.6156 8.45504C65.6156 7.83397 65.4382 7.30162 64.9946 6.94673C64.6397 6.59183 64.1073 6.32566 63.575 6.32566C63.0426 6.32566 62.5103 6.50311 62.1554 6.94673C61.8005 7.30162 61.5343 7.83397 61.5343 8.45504C61.5343 9.0761 61.7118 9.60845 62.1554 9.96334ZM67.3014 11.1168V5.79331H68.0999L70.6729 9.96334V5.79331H71.3827V11.1168H70.6729L67.9225 6.76928V11.1168H67.3014Z" fill="#F5F5F5"/>
<path d="M60.6459 18.923C58.5165 18.923 56.8308 20.52 56.8308 22.7381C56.8308 24.8675 58.5165 26.5532 60.6459 26.5532C62.7753 26.5532 64.4611 24.9562 64.4611 22.7381C64.4611 20.4313 62.7753 18.923 60.6459 18.923ZM60.6459 24.9562C59.4925 24.9562 58.5165 23.9802 58.5165 22.6494C58.5165 21.3185 59.4925 20.3425 60.6459 20.3425C61.7993 20.3425 62.7753 21.2298 62.7753 22.6494C62.7753 23.9802 61.7993 24.9562 60.6459 24.9562ZM52.3946 18.923C50.2652 18.923 48.5795 20.52 48.5795 22.7381C48.5795 24.8675 50.2652 26.5532 52.3946 26.5532C54.524 26.5532 56.2097 24.9562 56.2097 22.7381C56.2097 20.4313 54.524 18.923 52.3946 18.923ZM52.3946 24.9562C51.2412 24.9562 50.2652 23.9802 50.2652 22.6494C50.2652 21.3185 51.2412 20.3425 52.3946 20.3425C53.548 20.3425 54.524 21.2298 54.524 22.6494C54.524 23.9802 53.548 24.9562 52.3946 24.9562ZM42.5462 20.0764V21.6734H46.3614C46.2726 22.5606 45.9177 23.2704 45.4741 23.7141C44.9418 24.2464 44.0545 24.8675 42.5462 24.8675C40.1507 24.8675 38.3762 23.0043 38.3762 20.6087C38.3762 18.2132 40.2394 16.35 42.5462 16.35C43.7884 16.35 44.7643 16.8823 45.4741 17.5034L46.6275 16.35C45.6516 15.4627 44.4094 14.7529 42.6349 14.7529C39.4409 14.7529 36.6904 17.4147 36.6904 20.6087C36.6904 23.8028 39.4409 26.4645 42.6349 26.4645C44.4094 26.4645 45.6516 25.9322 46.7162 24.7787C47.7809 23.7141 48.1358 22.2057 48.1358 21.0523C48.1358 20.6974 48.1358 20.3425 48.0471 20.0764H42.5462ZM82.8269 21.3185C82.472 20.4313 81.5848 18.923 79.6329 18.923C77.6809 18.923 76.0839 20.4313 76.0839 22.7381C76.0839 24.8675 77.6809 26.5532 79.8103 26.5532C81.4961 26.5532 82.5608 25.4885 82.9157 24.8675L81.6735 23.9802C81.2299 24.6013 80.6976 25.0449 79.8103 25.0449C78.9231 25.0449 78.3907 24.69 77.9471 23.8915L83.0044 21.7621L82.8269 21.3185ZM77.6809 22.5606C77.6809 21.1411 78.8344 20.3425 79.6329 20.3425C80.2539 20.3425 80.875 20.6974 81.0525 21.1411L77.6809 22.5606ZM73.5109 26.1983H75.1967V15.1078H73.5109V26.1983ZM70.8492 19.7215C70.4056 19.2779 69.6958 18.8342 68.8085 18.8342C66.9453 18.8342 65.1708 20.52 65.1708 22.6494C65.1708 24.7787 66.8566 26.3758 68.8085 26.3758C69.6958 26.3758 70.4056 25.9322 70.7605 25.4885H70.8492V26.0209C70.8492 27.4405 70.0507 28.239 68.8085 28.239C67.8326 28.239 67.1228 27.5292 66.9453 26.9081L65.5257 27.5292C65.9694 28.5052 67.0341 29.7473 68.8973 29.7473C70.8492 29.7473 72.4462 28.5939 72.4462 25.8434V19.1004H70.8492V19.7215ZM68.8973 24.9562C67.7438 24.9562 66.7679 23.9802 66.7679 22.6494C66.7679 21.3185 67.7438 20.3425 68.8973 20.3425C70.0507 20.3425 70.9379 21.3185 70.9379 22.6494C70.9379 23.9802 70.0507 24.9562 68.8973 24.9562ZM90.5459 15.1078H86.5533V26.1983H88.2391V22.0283H90.5459C92.4091 22.0283 94.1836 20.6974 94.1836 18.5681C94.1836 16.4387 92.4091 15.1078 90.5459 15.1078ZM90.6347 20.4313H88.2391V16.6161H90.6347C91.8768 16.6161 92.5866 17.6808 92.5866 18.4793C92.4979 19.4553 91.7881 20.4313 90.6347 20.4313ZM100.838 18.8342C99.5958 18.8342 98.3536 19.3666 97.91 20.52L99.4183 21.1411C99.7732 20.52 100.306 20.3425 100.927 20.3425C101.814 20.3425 102.612 20.8749 102.701 21.7621V21.8509C102.435 21.6734 101.725 21.4072 101.015 21.4072C99.4183 21.4072 97.8213 22.2945 97.8213 23.8915C97.8213 25.3998 99.1522 26.3758 100.572 26.3758C101.725 26.3758 102.257 25.8434 102.701 25.3111H102.79V26.1983H104.387V21.9396C104.209 19.9876 102.701 18.8342 100.838 18.8342ZM100.66 24.9562C100.128 24.9562 99.3296 24.69 99.3296 23.9802C99.3296 23.093 100.306 22.8268 101.104 22.8268C101.814 22.8268 102.169 23.0043 102.612 23.1817C102.435 24.2464 101.548 24.9562 100.66 24.9562ZM109.976 19.1004L108.113 23.8915H108.025L106.073 19.1004H104.298L107.226 25.8434L105.54 29.5698H107.226L111.751 19.1004H109.976ZM95.0709 26.1983H96.7566V15.1078H95.0709V26.1983Z" fill="#F5F5F5"/>
<path d="M9.44999 6.2373C9.18382 6.50348 9.09509 6.9471 9.09509 7.47944V27.0875C9.09509 27.6198 9.27254 28.0634 9.53871 28.3296L9.62744 28.4183L20.6292 17.4165V17.2391L9.44999 6.2373Z" fill="url(#paint0_linear)"/>
<path d="M24.1777 21.1421L20.54 17.5044V17.2383L24.1777 13.6006L24.2664 13.6893L28.6139 16.1736C29.8561 16.8834 29.8561 18.0368 28.6139 18.7466L24.1777 21.1421Z" fill="url(#paint1_linear)"/>
<path d="M24.2643 21.054L20.5379 17.3276L9.44739 28.4181C9.89101 28.8618 10.5121 28.8618 11.3106 28.5069L24.2643 21.054Z" fill="url(#paint2_linear)"/>
<path d="M24.2643 13.6001L11.3106 6.23599C10.5121 5.79237 9.89101 5.8811 9.44739 6.32472L20.5379 17.3265L24.2643 13.6001Z" fill="url(#paint3_linear)"/>
<path opacity="0.2" d="M24.1756 20.9658L11.3106 28.2412C10.6008 28.6848 9.97973 28.5961 9.53611 28.2412L9.44739 28.3299L9.53611 28.4186C9.97973 28.7735 10.6008 28.8623 11.3106 28.4186L24.1756 20.9658Z" fill="#202020"/>
<path opacity="0.2" d="M9.44999 28.2407C9.18382 27.9745 9.09509 27.5309 9.09509 26.9986V27.0873C9.09509 27.6196 9.27254 28.0632 9.53871 28.3294V28.2407H9.44999ZM28.6144 18.481L24.1782 20.9653L24.2669 21.054L28.6144 18.5698C29.2355 18.2149 29.5016 17.7713 29.5016 17.3276C29.5016 17.7713 29.1467 18.1262 28.6144 18.481Z" fill="#202020"/>
<path opacity="0.2" d="M11.3129 6.32558L28.6141 16.1739C29.1465 16.5288 29.5014 16.8837 29.5014 17.3274C29.5014 16.8837 29.2352 16.4401 28.6141 16.0852L11.3129 6.23685C10.0708 5.52706 9.09485 6.05941 9.09485 7.47899V7.56772C9.09485 6.23685 10.0708 5.61579 11.3129 6.32558Z" fill="#F5F5F5"/>
<defs>
<linearGradient id="paint0_linear" x1="19.5645" y1="7.31087" x2="4.67397" y2="22.2005" gradientUnits="userSpaceOnUse">
<stop stop-color="#00A0FF"/>
<stop offset="0.007" stop-color="#00A1FF"/>
<stop offset="0.26" stop-color="#00BEFF"/>
<stop offset="0.512" stop-color="#00D2FF"/>
<stop offset="0.76" stop-color="#00DFFF"/>
<stop offset="1" stop-color="#00E3FF"/>
</linearGradient>
<linearGradient id="paint1_linear" x1="30.2411" y1="17.3279" x2="8.77257" y2="17.3279" gradientUnits="userSpaceOnUse">
<stop stop-color="#FFE000"/>
<stop offset="0.409" stop-color="#FFBD00"/>
<stop offset="0.775" stop-color="#FFA500"/>
<stop offset="1" stop-color="#FF9C00"/>
</linearGradient>
<linearGradient id="paint2_linear" x1="22.2476" y1="19.3647" x2="2.05579" y2="39.5566" gradientUnits="userSpaceOnUse">
<stop stop-color="#FF3A44"/>
<stop offset="1" stop-color="#C31162"/>
</linearGradient>
<linearGradient id="paint3_linear" x1="6.69428" y1="-0.262155" x2="15.7113" y2="8.75487" gradientUnits="userSpaceOnUse">
<stop stop-color="#32A071"/>
<stop offset="0.069" stop-color="#2DA771"/>
<stop offset="0.476" stop-color="#15CF74"/>
<stop offset="0.801" stop-color="#06E775"/>
<stop offset="1" stop-color="#00F076"/>
</linearGradient>
</defs>
</svg>
